<svg width="24" height="24" viewBox="0 0 24 24" fill="none" xmlns="http://www.w3.org/2000/svg">
<path d="M12 13.176C11.6881 13.176 11.389 13.3 11.1685 13.5205C10.948 13.741 10.824 14.0401 10.824 14.352V17.88C10.824 18.1919 10.948 18.491 11.1685 18.7116C11.389 18.9322 11.6881 19.056 12 19.056C12.3119 19.056 12.6111 18.9321 12.8316 18.7116C13.0521 18.4911 13.176 18.1919 13.176 17.88V14.352C13.176 14.0401 13.0521 13.741 12.8316 13.5205C12.6111 13.3 12.3119 13.176 12 13.176ZM17.88 8.47199V6.11999C17.88 4.56049 17.2605 3.06489 16.1578 1.96219C15.0551 0.85949 13.5595 0.23999 12 0.23999C10.4405 0.23999 8.94494 0.85949 7.84224 1.96219C6.73954 3.06489 6.12004 4.56049 6.12004 6.11999V8.47199C5.18434 8.47199 4.28704 8.84369 3.62534 9.50529C2.96374 10.167 2.59204 11.0644 2.59204 12V20.232C2.59204 21.1676 2.96374 22.065 3.62534 22.7267C4.28704 23.3883 5.18434 23.76 6.12004 23.76H17.88C18.8156 23.76 19.713 23.3883 20.3747 22.7267C21.0363 22.065 21.408 21.1676 21.408 20.232V12C21.408 11.0644 21.0363 10.167 20.3747 9.50529C19.713 8.84369 18.8156 8.47199 17.88 8.47199ZM8.47204 6.11999C8.47204 5.18429 8.84374 4.28699 9.50534 3.62529C10.167 2.96369 11.0644 2.59199 12 2.59199C12.9356 2.59199 13.833 2.96369 14.4947 3.62529C15.1563 4.28699 15.528 5.18429 15.528 6.11999V8.47199H8.47204V6.11999ZM19.056 20.232C19.056 20.5439 18.9321 20.8431 18.7116 21.0636C18.4911 21.2841 18.1919 21.408 17.88 21.408H6.12004C5.80814 21.408 5.50904 21.2841 5.28844 21.0636C5.06794 20.8431 4.94404 20.5439 4.94404 20.232V12C4.94404 11.6881 5.06794 11.389 5.28844 11.1685C5.50904 10.948 5.80814 10.824 6.12004 10.824H17.88C18.1919 10.824 18.4911 10.948 18.7116 11.1685C18.9321 11.389 19.056 11.6881 19.056 12V20.232Z" fill="#2555E7"/>
</svg>
