<svg width="20" height="20" viewBox="0 0 20 20" fill="none" xmlns="http://www.w3.org/2000/svg">
<g clip-path="url(#clip0_1_11719)">
<path d="M17.487 7.81486V7.65602C17.4927 6.06694 16.9885 4.51802 16.0486 3.23677C15.1086 1.95553 13.7825 1.00953 12.2651 0.537858H12.209C11.4253 0.298858 10.6088 0.185358 9.78963 0.201525C7.83896 0.308608 6.00271 1.15602 4.65555 2.57086C3.30846 3.98569 2.55196 5.86128 2.54063 7.81486C1.99321 8.00736 1.51913 8.36511 1.18371 8.83861C0.848296 9.31219 0.668213 9.87819 0.668213 10.4584C0.668213 11.0387 0.848296 11.6048 1.18371 12.0783C1.51913 12.5518 1.99321 12.9095 2.54063 13.1021C2.73305 14.9469 3.60455 16.6541 4.9858 17.892C6.36696 19.1299 8.15904 19.8099 10.0138 19.7999H10.2286C12.0222 19.7131 13.727 18.9937 15.0404 17.7692C16.3537 16.5447 17.1908 14.8944 17.4029 13.1114C17.9568 12.9298 18.4402 12.5799 18.7858 12.1106C19.1315 11.6413 19.3223 11.0759 19.3315 10.4931C19.3408 9.91028 19.168 9.33911 18.8375 8.85903C18.5069 8.37894 18.0348 8.01403 17.487 7.81486ZM10.182 17.9316C8.82971 17.9708 7.50888 17.5194 6.4633 16.661C5.41771 15.8025 4.71788 14.5949 4.49305 13.2609H15.4879C15.2599 14.5238 14.6117 15.6724 13.6484 16.5204C12.6852 17.3684 11.4635 17.8657 10.182 17.9316ZM16.5529 11.3926H3.4748C3.22705 11.3926 2.98946 11.2941 2.8143 11.119C2.63905 10.9439 2.54063 10.7062 2.54063 10.4584C2.54063 10.2107 2.63905 9.97311 2.81421 9.79794C2.98946 9.62278 3.22705 9.52427 3.4748 9.52427H5.34305C5.59088 9.52427 5.82846 9.42586 6.00363 9.25069C6.1788 9.07552 6.27721 8.83786 6.27721 8.59019C6.27721 8.34244 6.1788 8.10477 6.00363 7.92961C5.82846 7.75444 5.59088 7.65602 5.34313 7.65602H4.40896C4.45071 6.68694 4.72771 5.74261 5.21596 4.90444C5.70421 4.06636 6.38905 3.35952 7.21138 2.84519V5.78769C7.21138 6.03544 7.3098 6.27311 7.48496 6.44827C7.66021 6.62344 7.8978 6.72186 8.14555 6.72186C8.3933 6.72186 8.63088 6.62344 8.80604 6.44827C8.98121 6.27311 9.07971 6.03544 9.07971 5.78769V2.13519C9.33321 2.09286 9.58896 2.06477 9.84571 2.05111H10.0138C10.3269 2.05552 10.6391 2.08361 10.948 2.13519V5.78769C10.948 6.03544 11.0465 6.27311 11.2215 6.44827C11.3967 6.62344 11.6344 6.72186 11.8821 6.72186C12.1299 6.72186 12.3675 6.62344 12.5426 6.44827C12.7178 6.27311 12.8163 6.03544 12.8163 5.78769V2.81711C13.2125 3.04661 13.5821 3.31911 13.9185 3.62986C14.4572 4.15286 14.8852 4.77877 15.1772 5.47036C15.4692 6.16194 15.6195 6.90528 15.6187 7.65602H14.6845C14.4368 7.65602 14.1991 7.75444 14.024 7.92961C13.8489 8.10477 13.7504 8.34244 13.7504 8.59019C13.7504 8.83794 13.8489 9.07552 14.024 9.25069C14.1992 9.42586 14.4368 9.52427 14.6845 9.52427H16.5528C16.8005 9.52427 17.0382 9.62278 17.2134 9.79794C17.3885 9.97311 17.487 10.2107 17.487 10.4584C17.487 10.7062 17.3885 10.9439 17.2134 11.119C17.0382 11.2942 16.8005 11.3926 16.5529 11.3926Z" fill="#11273D"/>
</g>
<defs>
<clipPath id="clip0_1_11719">
<rect width="20" height="20" fill="white"/>
</clipPath>
</defs>
</svg>
