<svg width="24" height="24" viewBox="0 0 24 24" fill="none" xmlns="http://www.w3.org/2000/svg">
<path d="M19.0732 13.42V9.67109C19.0716 8.00079 18.4788 6.38489 17.3999 5.10969C16.3211 3.83449 14.8258 2.98229 13.1788 2.70389V1.41889C13.1788 1.10619 13.0545 0.80639 12.8335 0.58529C12.6125 0.36419 12.3125 0.23999 11.9999 0.23999C11.6873 0.23999 11.3874 0.36419 11.1663 0.58529C10.9453 0.80639 10.821 1.10619 10.821 1.41889V2.70389C9.17405 2.98229 7.67875 3.83449 6.59995 5.10969C5.52105 6.38489 4.92835 8.00079 4.92665 9.67109V13.42C4.23865 13.6632 3.64285 14.1133 3.22075 14.7084C2.79855 15.3036 2.57085 16.0148 2.56885 16.7444V19.1022C2.56885 19.4149 2.69305 19.7148 2.91415 19.9358C3.13525 20.1568 3.43505 20.2811 3.74775 20.2811H7.44945C7.72095 21.2801 8.31355 22.1619 9.13595 22.7906C9.95835 23.4194 10.9647 23.76 11.9999 23.76C13.0351 23.76 14.0415 23.4194 14.8639 22.7906C15.6863 22.1619 16.2789 21.2801 16.5504 20.2811H20.2521C20.5648 20.2811 20.8647 20.1569 21.0857 19.9358C21.3067 19.7147 21.431 19.4149 21.431 19.1022V16.7444C21.429 16.0148 21.2012 15.3036 20.7792 14.7084C20.357 14.1133 19.7611 13.6632 19.0732 13.42ZM7.28445 9.67109C7.28445 8.42049 7.78125 7.22099 8.66555 6.33669C9.54985 5.45239 10.7492 4.95559 11.9999 4.95559C13.2506 4.95559 14.45 5.45239 15.3343 6.33669C16.2187 7.22099 16.7155 8.42049 16.7155 9.67109V13.2078H7.28445V9.67109ZM11.9999 21.46C11.5885 21.4575 11.1848 21.3474 10.829 21.1406C10.4734 20.9337 10.1779 20.6375 9.97225 20.2811H14.0276C13.8219 20.6375 13.5264 20.9337 13.1708 21.1406C12.815 21.3474 12.4113 21.4575 11.9999 21.46ZM19.0732 17.9233H4.92665V16.7444C4.92665 16.4318 5.05085 16.1319 5.27195 15.9108C5.49295 15.6898 5.79285 15.5655 6.10555 15.5655H17.8943C18.207 15.5655 18.5069 15.6898 18.7279 15.9108C18.9489 16.1318 19.0732 16.4318 19.0732 16.7444V17.9233Z" fill="#566A7C"/>
</svg>
