<svg width="22" height="24" viewBox="0 0 22 24" fill="none" xmlns="http://www.w3.org/2000/svg">
<path d="M20.408 4.94399H15.704V3.76799C15.704 2.83229 15.3323 1.93499 14.6707 1.27329C14.009 0.61169 13.1116 0.23999 12.176 0.23999H9.82402C8.88842 0.23999 7.99102 0.61169 7.32932 1.27329C6.66772 1.93499 6.29602 2.83229 6.29602 3.76799V4.94399H1.59202C1.28012 4.94399 0.981016 5.06789 0.760416 5.28839C0.539916 5.50899 0.416016 5.80809 0.416016 6.11999C0.416016 6.43189 0.539916 6.73099 0.760416 6.95159C0.981016 7.17209 1.28012 7.29599 1.59202 7.29599H2.76802V20.232C2.76802 21.1676 3.13972 22.065 3.80132 22.7267C4.46302 23.3883 5.36032 23.76 6.29602 23.76H15.704C16.6396 23.76 17.537 23.3883 18.1987 22.7267C18.8603 22.065 19.232 21.1676 19.232 20.232V7.29599H20.408C20.7199 7.29599 21.0191 7.17209 21.2396 6.95159C21.4601 6.73099 21.584 6.43189 21.584 6.11999C21.584 5.80809 21.4601 5.50899 21.2396 5.28839C21.0191 5.06789 20.7199 4.94399 20.408 4.94399ZM8.64802 3.76799C8.64802 3.45609 8.77202 3.15699 8.99252 2.93639C9.21302 2.71589 9.51212 2.59199 9.82402 2.59199H12.176C12.4879 2.59199 12.7871 2.71589 13.0076 2.93639C13.2281 3.15699 13.352 3.45609 13.352 3.76799V4.94399H8.64802V3.76799ZM16.88 20.232C16.88 20.5439 16.756 20.843 16.5356 21.0636C16.3152 21.2842 16.0159 21.408 15.704 21.408H6.29602C5.98412 21.408 5.68502 21.2841 5.46442 21.0636C5.24392 20.8431 5.12002 20.5439 5.12002 20.232V7.29599H16.88V20.232Z" fill="#D54C4C"/>
</svg>
