<svg width="32" height="32" viewBox="0 0 32 32" fill="none" xmlns="http://www.w3.org/2000/svg">
<path d="M30.1121 13.648H28.5441V12.08C28.5441 11.6641 28.3789 11.2653 28.0849 10.9712C27.7909 10.6772 27.3919 10.512 26.9761 10.512C26.5602 10.512 26.1614 10.6772 25.8674 10.9712C25.5734 11.2653 25.4081 11.6641 25.4081 12.08V13.648H23.8401C23.4242 13.648 23.0254 13.8133 22.7314 14.1073C22.4374 14.4013 22.2721 14.8001 22.2721 15.216C22.2721 15.6319 22.4374 16.0308 22.7314 16.3248C23.0254 16.6188 23.4242 16.784 23.8401 16.784H25.4081V18.352C25.4081 18.7679 25.5733 19.1668 25.8673 19.4608C26.1613 19.7548 26.5602 19.92 26.9761 19.92C27.3919 19.92 27.7907 19.7547 28.0847 19.4608C28.3787 19.1669 28.5441 18.7679 28.5441 18.352V16.784H30.1121C30.5279 16.784 30.9267 16.6188 31.2209 16.3248C31.515 16.0308 31.6801 15.6319 31.6801 15.216C31.6801 14.8001 31.5149 14.4013 31.2209 14.1073C30.9269 13.8133 30.5279 13.648 30.1121 13.648ZM18.0385 16.3449C18.8751 15.6207 19.5462 14.7251 20.0062 13.7185C20.4661 12.7121 20.7041 11.6185 20.7041 10.512C20.7041 8.43266 19.8781 6.43853 18.4078 4.96826C16.9375 3.498 14.9434 2.672 12.8641 2.672C10.7847 2.672 8.7906 3.498 7.32033 4.96826C5.85007 6.43853 5.02407 8.43266 5.02407 10.512C5.02407 11.6185 5.26207 12.7121 5.72207 13.7185C6.18193 14.7251 6.853 15.6207 7.68967 16.3449C5.49473 17.3389 3.63247 18.9439 2.32554 20.9683C1.0186 22.9927 0.322335 25.3504 0.320068 27.76C0.320068 28.1759 0.485268 28.5748 0.779268 28.8688C1.0734 29.1628 1.4722 29.328 1.88807 29.328C2.30394 29.328 2.70273 29.1627 2.99687 28.8688C3.29087 28.5748 3.45607 28.1759 3.45607 27.76C3.45607 25.2648 4.44727 22.8719 6.21167 21.1076C7.97593 19.3432 10.3689 18.352 12.8641 18.352C15.3593 18.352 17.7522 19.3432 19.5165 21.1076C21.281 22.8719 22.2721 25.2648 22.2721 27.76C22.2721 28.1759 22.4374 28.5748 22.7314 28.8688C23.0254 29.1628 23.4242 29.328 23.8401 29.328C24.2559 29.328 24.6547 29.1627 24.9489 28.8688C25.243 28.5749 25.4081 28.1759 25.4081 27.76C25.4057 25.3504 24.7095 22.9927 23.4026 20.9683C22.0957 18.9439 20.2335 17.3389 18.0385 16.3449ZM12.8641 15.216C11.9337 15.216 11.0242 14.9401 10.2507 14.4232C9.47714 13.9064 8.8742 13.1716 8.5182 12.3121C8.16207 11.4525 8.069 10.5068 8.25047 9.59426C8.43193 8.68186 8.87994 7.8436 9.5378 7.18573C10.1957 6.52786 11.0339 6.07986 11.9463 5.8984C12.8589 5.71693 13.8047 5.81 14.6643 6.16613C15.5237 6.52213 16.2585 7.12506 16.7753 7.89866C17.2922 8.67213 17.5681 9.5816 17.5681 10.512C17.5681 11.7596 17.0725 12.956 16.1903 13.8383C15.3081 14.7204 14.1115 15.216 12.8641 15.216Z" fill="white"/>
</svg>
