<svg width="24" height="24" viewBox="0 0 24 24" fill="none" xmlns="http://www.w3.org/2000/svg">
<path d="M21.5997 3.32139C20.3518 2.07309 18.6972 1.31419 16.9371 1.18259C15.1769 1.05099 13.428 1.55559 12.0083 2.60439C10.5128 1.49209 8.65132 0.987689 6.79872 1.19279C4.94622 1.39789 3.24022 2.29739 2.02432 3.70999C0.80832 5.12259 0.17282 6.94349 0.24562 8.80589C0.31852 10.6684 1.09432 12.434 2.41692 13.7474L11.1737 22.5043C11.283 22.6144 11.4131 22.7019 11.5562 22.7615C11.6995 22.8212 11.8531 22.852 12.0083 22.852C12.1635 22.852 12.3171 22.8212 12.4604 22.7615C12.6035 22.7019 12.7335 22.6144 12.8428 22.5043L21.5997 13.7474C22.2846 13.063 22.8279 12.2503 23.1985 11.3558C23.5692 10.4613 23.76 9.50259 23.76 8.53439C23.76 7.56619 23.5692 6.60739 23.1985 5.71299C22.8279 4.81849 22.2846 4.00579 21.5997 3.32139Z" fill="#F0125C"/>
</svg>
