<svg width="24" height="24" viewBox="0 0 24 24" fill="none" xmlns="http://www.w3.org/2000/svg">
<path d="M10.4149 12.001L3.33253 19.0728C3.12084 19.2845 3.00191 19.5717 3.00191 19.8711C3.00191 20.1705 3.12084 20.4576 3.33253 20.6694C3.54421 20.8811 3.83135 21 4.13074 21C4.43013 21 4.71719 20.8811 4.92888 20.6694L12 13.5863L19.0711 20.6694C19.2828 20.8811 19.5699 21 19.8693 21C20.1686 21 20.4558 20.8811 20.6675 20.6694C20.8792 20.4576 20.9981 20.1705 20.9981 19.8711C20.9981 19.5718 20.8792 19.2845 20.6675 19.0728L13.5851 12.001L20.6675 4.92909C20.7729 4.82454 20.8564 4.70016 20.9135 4.56316C20.9706 4.42615 21 4.2792 21 4.13079C21 3.9823 20.9706 3.83535 20.9135 3.69842C20.8564 3.56134 20.7729 3.43704 20.6675 3.33256C20.5629 3.22709 20.4386 3.14343 20.3017 3.08649C20.1647 3.02931 20.0177 3 19.8693 3C19.7209 3 19.5739 3.02931 19.4369 3.08649C19.2999 3.14343 19.1757 3.22709 19.0711 3.33256L12 10.4157L4.92888 3.33256C4.82434 3.22709 4.69997 3.14343 4.56306 3.08649C4.42607 3.02931 4.27913 3 4.13074 3C3.98235 3 3.83541 3.02931 3.69834 3.08649C3.56143 3.14343 3.43707 3.22709 3.33253 3.33256C3.22722 3.43704 3.14357 3.56134 3.08648 3.69842C3.02939 3.83535 3 3.9823 3 4.13079C3 4.2792 3.02939 4.42615 3.08648 4.56316C3.14357 4.70016 3.22722 4.82454 3.33253 4.92909L10.4149 12.001Z" fill="#566A7C"/>
</svg>
