<svg width="24" height="24" viewBox="0 0 24 24" fill="none" xmlns="http://www.w3.org/2000/svg">
<path d="M20.9757 2.17909C20.839 2.06849 20.6794 1.98999 20.5083 1.94929C20.3373 1.90859 20.1594 1.90669 19.9876 1.94379C18.7305 2.20729 17.4328 2.21059 16.1745 1.95369C14.9161 1.69669 13.7236 1.18499 12.6705 0.44979C12.4736 0.31319 12.2396 0.23999 12 0.23999C11.7604 0.23999 11.5264 0.31319 11.3295 0.44979C10.2764 1.18499 9.08392 1.69669 7.82552 1.95369C6.56712 2.21059 5.26952 2.20729 4.01252 1.94379C3.84062 1.90669 3.66272 1.90859 3.49172 1.94929C3.32072 1.98999 3.16102 2.06849 3.02432 2.17909C2.88782 2.28979 2.77792 2.42969 2.70262 2.58849C2.62722 2.74729 2.58852 2.92089 2.58912 3.09659V11.8607C2.58802 13.5472 2.98992 15.2097 3.76132 16.7095C4.53272 18.2093 5.65142 19.5033 7.02402 20.4835L11.3177 23.542C11.517 23.6838 11.7554 23.76 12 23.76C12.2446 23.76 12.483 23.6838 12.6823 23.542L16.9761 20.4835C18.3487 19.5033 19.4673 18.2094 20.2387 16.7095C21.0101 15.2097 21.412 13.5472 21.411 11.8607V3.09659C21.4116 2.92089 21.3728 2.74729 21.2975 2.58849C21.2222 2.42969 21.1122 2.28979 20.9757 2.17909ZM19.0582 11.8607C19.0592 13.172 18.7468 14.4646 18.1474 15.6309C17.5478 16.7972 16.6784 17.8034 15.6115 18.566L12 21.1422L8.38862 18.566C7.32162 17.8035 6.45222 16.7972 5.85272 15.6309C5.25322 14.4646 4.94092 13.172 4.94182 11.8607V4.44949C7.40802 4.66059 9.87782 4.08839 12 2.81429C14.1222 4.08839 16.5921 4.66059 19.0582 4.44949V11.8607ZM13.8116 9.16669L10.6472 12.343L9.60022 11.2842C9.37872 11.0627 9.07822 10.9383 8.76502 10.9383C8.45172 10.9383 8.15132 11.0627 7.92982 11.2842C7.70822 11.5057 7.58382 11.8062 7.58382 12.1195C7.58382 12.4328 7.70822 12.7332 7.92982 12.9547L9.81192 14.8369C9.92132 14.9471 10.0515 15.0346 10.1947 15.0944C10.3381 15.154 10.4919 15.1848 10.6472 15.1848C10.8025 15.1848 10.9562 15.154 11.0996 15.0944C11.2429 15.0346 11.373 14.9471 11.4824 14.8369L15.5291 10.8254C15.7506 10.6039 15.8751 10.3035 15.8751 9.99019C15.8751 9.67689 15.7506 9.37649 15.5291 9.15489C15.3076 8.93339 15.0071 8.80899 14.6939 8.80899C14.3807 8.80899 14.0802 8.93339 13.8587 9.15489L13.8116 9.16669Z" fill="#2555E7"/>
</svg>
