<svg width="25" height="24" viewBox="0 0 25 24" fill="none" xmlns="http://www.w3.org/2000/svg">
<g clip-path="url(#clip0_37_130)">
<path d="M21.9747 3.32145C20.7268 2.07315 19.0722 1.31425 17.3121 1.18265C15.5519 1.05105 13.803 1.55565 12.3833 2.60445C10.8878 1.49215 9.02632 0.98775 7.17372 1.19285C5.32122 1.39795 3.61522 2.29745 2.39932 3.71005C1.18332 5.12265 0.54782 6.94355 0.62062 8.80595C0.69352 10.6684 1.46932 12.4341 2.79192 13.7475L11.5487 22.5043C11.658 22.6144 11.7881 22.7019 11.9312 22.7615C12.0745 22.8212 12.2281 22.852 12.3833 22.852C12.5385 22.852 12.6921 22.8212 12.8354 22.7615C12.9785 22.7019 13.1085 22.6144 13.2178 22.5043L21.9747 13.7475C22.6596 13.0631 23.2029 12.2503 23.5735 11.3559C23.9442 10.4614 24.135 9.50265 24.135 8.53445C24.135 7.56625 23.9442 6.60745 23.5735 5.71305C23.2029 4.81855 22.6596 4.00585 21.9747 3.32145ZM20.3174 12.0902L12.3833 20.0124L4.44922 12.0902C3.75012 11.3881 3.27382 10.4952 3.08012 9.52335C2.88652 8.55165 2.98412 7.54435 3.36072 6.62795C3.73742 5.71145 4.37622 4.92665 5.19722 4.37185C6.01822 3.81715 6.98472 3.51715 7.97552 3.50955C9.29912 3.51275 10.5674 4.04125 11.5017 4.97885C11.6111 5.08895 11.7411 5.17645 11.8842 5.23615C12.0275 5.29575 12.1811 5.32655 12.3363 5.32655C12.4915 5.32655 12.6451 5.29575 12.7884 5.23615C12.9315 5.17645 13.0615 5.08895 13.1708 4.97885C14.1327 4.14535 15.3753 3.70835 16.6471 3.75645C17.9191 3.80445 19.1252 4.33395 20.0214 5.23765C20.9177 6.14135 21.4371 7.35185 21.4746 8.62405C21.5121 9.89625 21.0648 11.1352 20.2234 12.0902H20.3174Z" fill="#8796A4"/>
</g>
<defs>
<clipPath id="clip0_37_130">
<rect width="24" height="24" fill="white" transform="translate(0.375)"/>
</clipPath>
</defs>
</svg>
