<svg width="24" height="24" viewBox="0 0 24 24" fill="none" xmlns="http://www.w3.org/2000/svg">
<path d="M20.232 2.59204H3.76799C2.83229 2.59204 1.93499 2.96374 1.27329 3.62534C0.61169 4.28704 0.23999 5.18434 0.23999 6.12004V17.88C0.23999 18.8156 0.61169 19.713 1.27329 20.3747C1.93499 21.0363 2.83229 21.408 3.76799 21.408H20.232C21.1676 21.408 22.065 21.0363 22.7267 20.3747C23.3883 19.713 23.76 18.8156 23.76 17.88V6.12004C23.76 5.18434 23.3883 4.28704 22.7267 3.62534C22.065 2.96374 21.1676 2.59204 20.232 2.59204ZM3.76799 4.94404H20.232C20.5439 4.94404 20.843 5.06794 21.0636 5.28844C21.2841 5.50904 21.408 5.80814 21.408 6.12004L12 11.8589L2.59199 6.12004C2.59199 5.80814 2.71589 5.50904 2.93639 5.28844C3.15699 5.06794 3.45609 4.94404 3.76799 4.94404ZM21.408 17.88C21.408 18.1919 21.2841 18.4911 21.0636 18.7116C20.8431 18.9321 20.5439 19.056 20.232 19.056H3.76799C3.45609 19.056 3.15699 18.9321 2.93639 18.7116C2.71589 18.4911 2.59199 18.1919 2.59199 17.88V8.80134L11.3885 14.1756C11.5672 14.2789 11.7701 14.3332 11.9765 14.3332C12.1829 14.3332 12.3857 14.2789 12.5645 14.1756L21.408 8.80134V17.88Z" fill="#2555E7"/>
</svg>
