<svg width="24" height="24" viewBox="0 0 24 24" fill="none" xmlns="http://www.w3.org/2000/svg">
<g clip-path="url(#clip0_1_11287)">
<path d="M23.4297 21.7697L19.0694 17.4446C20.7619 15.3343 21.5816 12.6556 21.3598 9.95949C21.138 7.26339 19.8917 4.75469 17.877 2.94919C15.8625 1.14379 13.2326 0.178894 10.5284 0.252894C7.82405 0.326894 5.25095 1.43419 3.33805 3.34709C1.42515 5.25999 0.317952 7.83309 0.243952 10.5373C0.169952 13.2415 1.13485 15.8714 2.94025 17.886C4.74565 19.9007 7.25435 21.147 9.95055 21.3687C12.6467 21.5905 15.3253 20.7709 17.4357 19.0783L21.7608 23.4034C21.8701 23.5135 22.0001 23.601 22.1433 23.6607C22.2865 23.7204 22.4401 23.7511 22.5953 23.7511C22.7505 23.7511 22.904 23.7204 23.0473 23.6607C23.1905 23.601 23.3204 23.5135 23.4297 23.4034C23.6415 23.1842 23.76 22.8913 23.76 22.5866C23.76 22.2819 23.6415 21.9888 23.4297 21.7697ZM10.8423 19.0783C9.21505 19.0783 7.62445 18.5958 6.27145 17.6918C4.91855 16.7878 3.86405 15.5029 3.24135 13.9996C2.61865 12.4963 2.45575 10.842 2.77325 9.24619C3.09065 7.65029 3.87425 6.18429 5.02475 5.03379C6.17535 3.88319 7.64125 3.09959 9.23715 2.78219C10.8331 2.46469 12.4874 2.62769 13.9907 3.25039C15.494 3.87299 16.7788 4.92749 17.6829 6.28049C18.5869 7.63339 19.0694 9.22399 19.0694 10.8512C19.0694 13.0332 18.2026 15.1258 16.6597 16.6687C15.1168 18.2115 13.0242 19.0783 10.8423 19.0783Z" fill="#2555E7"/>
</g>
<defs>
<clipPath id="clip0_1_11287">
<rect width="24" height="24" fill="white"/>
</clipPath>
</defs>
</svg>
