<svg width="24" height="24" viewBox="0 0 24 24" fill="none" xmlns="http://www.w3.org/2000/svg">
<path d="M23.6618 11.5298C21.2872 6.01624 16.8199 2.59534 12 2.59534C7.18009 2.59534 2.71279 6.01634 0.33819 11.5298C0.27339 11.6781 0.23999 11.8381 0.23999 12C0.23999 12.1619 0.27339 12.3219 0.33819 12.4702C2.71279 17.9838 7.18009 21.4047 12 21.4047C16.8199 21.4047 21.2872 17.9838 23.6618 12.4702C23.7266 12.3219 23.76 12.1619 23.76 12C23.76 11.8381 23.7266 11.6781 23.6618 11.5298ZM12 19.0535C8.27339 19.0535 4.74659 16.3614 2.71279 12C4.74659 7.63864 8.27339 4.94654 12 4.94654C15.7266 4.94654 19.2534 7.63864 21.2872 12C19.2534 16.3614 15.7266 19.0535 12 19.0535ZM12 7.29764C11.07 7.29764 10.1608 7.57344 9.38749 8.09014C8.61419 8.60684 8.01149 9.34124 7.65559 10.2005C7.29969 11.0598 7.20649 12.0052 7.38799 12.9174C7.56939 13.8296 8.01729 14.6674 8.67489 15.325C9.33259 15.9827 10.1704 16.4306 11.0826 16.612C11.9948 16.7935 12.9402 16.7004 13.7995 16.3444C14.6587 15.9886 15.3932 15.3858 15.9099 14.6125C16.4266 13.8392 16.7024 12.93 16.7024 12C16.7024 10.7528 16.207 9.55684 15.325 8.67494C14.4432 7.79314 13.2472 7.29764 12 7.29764ZM12 14.3512C11.5349 14.3512 11.0804 14.2133 10.6938 13.9549C10.3071 13.6966 10.0057 13.3294 9.82769 12.8998C9.64989 12.4701 9.60329 11.9974 9.69399 11.5413C9.78469 11.0853 10.0087 10.6663 10.3375 10.3375C10.6663 10.0087 11.0853 9.78474 11.5413 9.69404C11.9974 9.60334 12.4701 9.64994 12.8998 9.82774C13.3293 10.0057 13.6966 10.3072 13.9549 10.6938C14.2133 11.0805 14.3512 11.5349 14.3512 12C14.3512 12.6235 14.1035 13.2216 13.6625 13.6625C13.2215 14.1034 12.6235 14.3512 12 14.3512Z" fill="#8796A4"/>
</svg>
