<svg width="24" height="24" viewBox="0 0 24 24" fill="none" xmlns="http://www.w3.org/2000/svg">
<g clip-path="url(#clip0_6_3636)">
<path d="M23.7206 9.26596C23.6463 9.05116 23.5115 8.86256 23.3322 8.72286C23.153 8.58316 22.937 8.49856 22.7106 8.47916L16.0282 7.50436L13.0335 1.43276C12.9373 1.23416 12.7872 1.06676 12.6003 0.949564C12.4133 0.832364 12.1972 0.770264 11.9765 0.770264C11.7558 0.770264 11.5398 0.832364 11.3528 0.949564C11.1658 1.06676 11.0158 1.23416 10.9196 1.43276L7.92481 7.49266L1.24251 8.47916C1.02511 8.51006 0.820815 8.60126 0.652615 8.74246C0.484515 8.88356 0.359315 9.06906 0.291215 9.27776C0.228915 9.48176 0.223315 9.69876 0.275115 9.90566C0.326815 10.1127 0.433915 10.3015 0.584815 10.4522L5.43511 15.1498L4.26072 21.8204C4.21882 22.0406 4.24071 22.2682 4.32401 22.4763C4.40721 22.6843 4.54832 22.8643 4.73052 22.9948C4.90811 23.1218 5.11752 23.1967 5.33541 23.2112C5.55322 23.2258 5.77071 23.1793 5.96361 23.077L11.9765 19.9414L17.966 23.0888C18.1308 23.1818 18.317 23.2303 18.5062 23.2297C18.755 23.2306 18.9976 23.1524 19.1991 23.0066C19.3813 22.8761 19.5223 22.696 19.6056 22.4881C19.6889 22.28 19.7108 22.0524 19.6689 21.8322L18.4945 15.1616L23.3448 10.4639C23.5143 10.3203 23.6397 10.1315 23.7061 9.91936C23.7727 9.70736 23.7776 9.48066 23.7206 9.26596ZM16.498 13.9637C16.3602 14.0968 16.2572 14.2617 16.1978 14.444C16.1385 14.6261 16.1246 14.8201 16.1574 15.0089L17.003 19.9296L12.5872 17.5808C12.4173 17.4904 12.2278 17.4431 12.0353 17.4431C11.8428 17.4431 11.6532 17.4904 11.4833 17.5808L7.06751 19.9296L7.91311 15.0089C7.94591 14.8201 7.93201 14.6261 7.87271 14.444C7.81331 14.2617 7.71032 14.0968 7.57252 13.9637L4.04931 10.4404L8.99361 9.72406C9.18381 9.69756 9.36471 9.62486 9.52031 9.51226C9.67591 9.39956 9.80161 9.25056 9.88611 9.07806L11.9766 4.60366L14.1844 9.08986C14.269 9.26226 14.3947 9.41136 14.5503 9.52396C14.7059 9.63656 14.8867 9.70936 15.077 9.73576L20.0212 10.4522L16.498 13.9637Z" fill="#D19305"/>
</g>
<defs>
<clipPath id="clip0_6_3636">
<rect width="24" height="24" fill="white"/>
</clipPath>
</defs>
</svg>
