<svg width="25" height="24" viewBox="0 0 25 24" fill="none" xmlns="http://www.w3.org/2000/svg">
<g clip-path="url(#clip0_1_8331)">
<path d="M23.209 4.94399H18.505V3.76799C18.505 2.83229 18.1333 1.93499 17.4717 1.27329C16.81 0.61169 15.9126 0.23999 14.977 0.23999H10.273C9.33729 0.23999 8.43999 0.61169 7.77829 1.27329C7.11669 1.93499 6.74499 2.83229 6.74499 3.76799V4.94399H2.04099C1.72909 4.94399 1.42999 5.06789 1.20939 5.28839C0.98889 5.50899 0.86499 5.80809 0.86499 6.11999V10.824C0.86769 11.3172 0.97369 11.8043 1.17619 12.254C1.37879 12.7037 1.67339 13.1059 2.04099 13.4347V20.232C2.04099 21.1676 2.41269 22.065 3.07429 22.7267C3.73599 23.3883 4.63329 23.76 5.56899 23.76H19.681C20.6166 23.76 21.514 23.3883 22.1757 22.7267C22.8373 22.065 23.209 21.1676 23.209 20.232V13.4347C23.5766 13.1059 23.8712 12.7037 24.0737 12.254C24.2763 11.8043 24.3823 11.3172 24.385 10.824V6.11999C24.385 5.80809 24.2611 5.50899 24.0406 5.28839C23.8201 5.06789 23.5209 4.94399 23.209 4.94399ZM9.09699 3.76799C9.09699 3.45609 9.22089 3.15699 9.44139 2.93639C9.66199 2.71589 9.96109 2.59199 10.273 2.59199H14.977C15.2889 2.59199 15.5881 2.71589 15.8086 2.93639C16.0291 3.15699 16.153 3.45609 16.153 3.76799V4.94399H9.09699V3.76799ZM20.857 20.232C20.857 20.5439 20.7331 20.843 20.5126 21.0636C20.2921 21.2842 19.9929 21.408 19.681 21.408H5.56899C5.25709 21.408 4.95799 21.2841 4.73739 21.0636C4.51689 20.8431 4.39299 20.5439 4.39299 20.232V14.352H6.74499V15.528C6.74499 15.8399 6.86889 16.1391 7.08939 16.3596C7.30999 16.5801 7.60909 16.704 7.92099 16.704C8.23289 16.704 8.53199 16.5801 8.75259 16.3596C8.97309 16.1391 9.09699 15.8399 9.09699 15.528V14.352H16.153V15.528C16.153 15.8399 16.277 16.1391 16.4975 16.3596C16.718 16.5801 17.0171 16.704 17.329 16.704C17.6409 16.704 17.9401 16.5801 18.1606 16.3596C18.3811 16.1391 18.505 15.8399 18.505 15.528V14.352H20.857V20.232ZM22.033 10.824C22.033 11.1359 21.9091 11.4351 21.6886 11.6556C21.4681 11.8761 21.1689 12 20.857 12H18.505V10.824C18.505 10.5121 18.3811 10.213 18.1606 9.99249C17.9401 9.77199 17.6409 9.64799 17.329 9.64799C17.0171 9.64799 16.718 9.77199 16.4975 9.99249C16.277 10.213 16.153 10.5121 16.153 10.824V12H9.09699V10.824C9.09699 10.5121 8.97309 10.213 8.75259 9.99249C8.53199 9.77199 8.23289 9.64799 7.92099 9.64799C7.60909 9.64799 7.30999 9.77199 7.08939 9.99249C6.86889 10.213 6.74499 10.5121 6.74499 10.824V12H4.39299C4.08109 12 3.78199 11.8761 3.56139 11.6556C3.34089 11.4351 3.21699 11.1359 3.21699 10.824V7.29599H22.033V10.824Z" fill="#8796A4"/>
</g>
<defs>
<clipPath id="clip0_1_8331">
<rect width="24" height="24" fill="white" transform="translate(0.625)"/>
</clipPath>
</defs>
</svg>
