<svg width="64" height="46" viewBox="0 0 64 46" fill="none" xmlns="http://www.w3.org/2000/svg">
<path d="M61.9235 1.51149C61.5083 1.09309 61.0147 0.76109 60.4712 0.534423C59.9272 0.308023 59.344 0.191223 58.7547 0.191223C58.1654 0.191223 57.5824 0.308023 57.0384 0.534423C56.495 0.76109 56.0014 1.09309 55.5862 1.51149L22.3382 34.8043L8.36936 20.791C7.93869 20.375 7.43016 20.0475 6.87282 19.8278C6.31576 19.6083 5.72056 19.5008 5.12189 19.511C4.52296 19.5216 3.93202 19.6499 3.38269 19.8886C2.83362 20.1272 2.33656 20.4718 1.92056 20.9024C1.50429 21.3331 1.17736 21.8419 0.957624 22.399C0.738157 22.9563 0.630424 23.5512 0.640824 24.1502C0.650957 24.7491 0.779224 25.3398 1.01789 25.8888C1.25682 26.4382 1.60136 26.9352 2.03202 27.3512L19.1694 44.4886C19.5843 44.9067 20.0779 45.239 20.6216 45.4656C21.1656 45.6923 21.7488 45.8088 22.3379 45.8088C22.9272 45.8088 23.5104 45.6923 24.0544 45.4656C24.5979 45.2387 25.0915 44.9067 25.5067 44.4886L61.9235 8.07176C62.3763 7.65389 62.7379 7.14669 62.9851 6.58216C63.2323 6.01762 63.36 5.40802 63.36 4.79149C63.36 4.17496 63.2323 3.56562 62.9851 3.00109C62.7379 2.43656 62.3763 1.92936 61.9235 1.51149Z" fill="#FFE45B"/>
</svg>
