<svg width="25" height="24" viewBox="0 0 25 24" fill="none" xmlns="http://www.w3.org/2000/svg">
<path d="M12.5 12C11.9067 12 11.3266 12.1759 10.8333 12.5056C10.3399 12.8352 9.95542 13.3038 9.72836 13.8519C9.5013 14.4001 9.44189 15.0033 9.55764 15.5853C9.6734 16.1672 9.95912 16.7018 10.3787 17.1213C10.7982 17.5409 11.3328 17.8266 11.9147 17.9424C12.4967 18.0581 13.0999 17.9987 13.6481 17.7716C14.1962 17.5446 14.6648 17.1601 14.9944 16.6667C15.3241 16.1734 15.5 15.5933 15.5 15C15.5 14.2044 15.1839 13.4413 14.6213 12.8787C14.0587 12.3161 13.2956 12 12.5 12ZM12.5 16C12.3022 16 12.1089 15.9414 11.9444 15.8315C11.78 15.7216 11.6518 15.5654 11.5761 15.3827C11.5004 15.2 11.4806 14.9989 11.5192 14.8049C11.5578 14.6109 11.653 14.4327 11.7929 14.2929C11.9327 14.153 12.1109 14.0578 12.3049 14.0192C12.4989 13.9806 12.7 14.0004 12.8827 14.0761C13.0654 14.1518 13.2216 14.28 13.3315 14.4444C13.4414 14.6089 13.5 14.8022 13.5 15C13.5 15.2652 13.3946 15.5196 13.2071 15.7071C13.0196 15.8946 12.7652 16 12.5 16ZM11.79 9.71C11.8851 9.80104 11.9972 9.87241 12.12 9.92C12.2397 9.97291 12.3691 10.0002 12.5 10.0002C12.6309 10.0002 12.7603 9.97291 12.88 9.92C13.0028 9.87241 13.1149 9.80104 13.21 9.71L15.5 7.46C15.6936 7.26639 15.8024 7.0038 15.8024 6.73C15.8024 6.4562 15.6936 6.19361 15.5 6C15.3064 5.80639 15.0438 5.69762 14.77 5.69762C14.4962 5.69762 14.2336 5.80639 14.04 6L13.5 6.59V3C13.5 2.73478 13.3946 2.48043 13.2071 2.29289C13.0196 2.10536 12.7652 2 12.5 2C12.2348 2 11.9804 2.10536 11.7929 2.29289C11.6054 2.48043 11.5 2.73478 11.5 3V6.59L10.96 6C10.7664 5.80639 10.5038 5.69762 10.23 5.69762C9.9562 5.69762 9.69361 5.80639 9.5 6C9.30639 6.19361 9.19762 6.4562 9.19762 6.73C9.19762 7.0038 9.30639 7.26639 9.5 7.46L11.79 9.71ZM19.5 15C19.5 14.8022 19.4414 14.6089 19.3315 14.4444C19.2216 14.28 19.0654 14.1518 18.8827 14.0761C18.7 14.0004 18.4989 13.9806 18.3049 14.0192C18.1109 14.0578 17.9327 14.153 17.7929 14.2929C17.653 14.4327 17.5578 14.6109 17.5192 14.8049C17.4806 14.9989 17.5004 15.2 17.5761 15.3827C17.6518 15.5654 17.78 15.7216 17.9444 15.8315C18.1089 15.9414 18.3022 16 18.5 16C18.7652 16 19.0196 15.8946 19.2071 15.7071C19.3946 15.5196 19.5 15.2652 19.5 15ZM20.5 8H17.5C17.2348 8 16.9804 8.10536 16.7929 8.29289C16.6054 8.48043 16.5 8.73478 16.5 9C16.5 9.26522 16.6054 9.51957 16.7929 9.70711C16.9804 9.89464 17.2348 10 17.5 10H20.5C20.7652 10 21.0196 10.1054 21.2071 10.2929C21.3946 10.4804 21.5 10.7348 21.5 11V19C21.5 19.2652 21.3946 19.5196 21.2071 19.7071C21.0196 19.8946 20.7652 20 20.5 20H4.5C4.23478 20 3.98043 19.8946 3.79289 19.7071C3.60536 19.5196 3.5 19.2652 3.5 19V11C3.5 10.7348 3.60536 10.4804 3.79289 10.2929C3.98043 10.1054 4.23478 10 4.5 10H7.5C7.76522 10 8.01957 9.89464 8.20711 9.70711C8.39464 9.51957 8.5 9.26522 8.5 9C8.5 8.73478 8.39464 8.48043 8.20711 8.29289C8.01957 8.10536 7.76522 8 7.5 8H4.5C3.70435 8 2.94129 8.31607 2.37868 8.87868C1.81607 9.44129 1.5 10.2044 1.5 11V19C1.5 19.7956 1.81607 20.5587 2.37868 21.1213C2.94129 21.6839 3.70435 22 4.5 22H20.5C21.2956 22 22.0587 21.6839 22.6213 21.1213C23.1839 20.5587 23.5 19.7956 23.5 19V11C23.5 10.2044 23.1839 9.44129 22.6213 8.87868C22.0587 8.31607 21.2956 8 20.5 8ZM5.5 15C5.5 15.1978 5.55865 15.3911 5.66853 15.5556C5.77841 15.72 5.93459 15.8482 6.11732 15.9239C6.30004 15.9996 6.50111 16.0194 6.69509 15.9808C6.88907 15.9422 7.06725 15.847 7.20711 15.7071C7.34696 15.5673 7.4422 15.3891 7.48079 15.1951C7.51937 15.0011 7.49957 14.8 7.42388 14.6173C7.34819 14.4346 7.22002 14.2784 7.05557 14.1685C6.89112 14.0586 6.69778 14 6.5 14C6.23478 14 5.98043 14.1054 5.79289 14.2929C5.60536 14.4804 5.5 14.7348 5.5 15Z" fill="#2555E7"/>
</svg>
