<svg width="24" height="24" viewBox="0 0 24 24" fill="none" xmlns="http://www.w3.org/2000/svg">
<path d="M5.79806 13.2971L15.7581 23.2395C15.9216 23.4044 16.1163 23.5353 16.3307 23.6247C16.5451 23.714 16.7752 23.76 17.0075 23.76C17.2398 23.76 17.4698 23.714 17.6842 23.6247C17.8986 23.5353 18.0932 23.4044 18.2568 23.2395C18.5846 22.9098 18.7686 22.4638 18.7686 21.9989C18.7686 21.534 18.5846 21.088 18.2568 20.7583L9.54626 11.9597L18.2568 3.24911C18.5846 2.91951 18.7686 2.47341 18.7686 2.00851C18.7686 1.54361 18.5846 1.09771 18.2568 0.767912C18.0939 0.601612 17.8995 0.469511 17.685 0.378811C17.4706 0.28821 17.2403 0.24111 17.0075 0.240011C16.7746 0.24111 16.5443 0.28821 16.3298 0.378811C16.1154 0.469511 15.921 0.601612 15.7581 0.767912L5.79806 10.7103C5.61946 10.8752 5.47696 11.0751 5.37946 11.2977C5.28196 11.5203 5.23156 11.7607 5.23156 12.0037C5.23156 12.2467 5.28196 12.4871 5.37946 12.7097C5.47696 12.9323 5.61946 13.1324 5.79806 13.2971Z" fill="#566A7C"/>
</svg>
