<svg width="20" height="20" viewBox="0 0 20 20" fill="none" xmlns="http://www.w3.org/2000/svg">
<g clip-path="url(#clip0_1_10620)">
<path d="M19.4897 9.90672C20.064 7.72389 19.7229 5.86354 18.5289 4.66951L15.3306 1.47121C14.1365 0.27718 12.2762 -0.0639714 10.0933 0.510393C8.05377 1.04677 5.93556 2.33742 4.13652 4.13646C2.33747 5.93551 1.04682 8.05371 0.510445 10.0933C-0.0639132 12.2761 0.277231 14.1365 1.47126 15.3305L4.66956 18.5288C5.8636 19.7228 7.72394 20.064 9.90678 19.4896C11.9464 18.9532 14.0646 17.6626 15.8636 15.8636C17.6626 14.0645 18.9533 11.9463 19.4897 9.90672ZM15.3166 14.2504L13.1844 12.1182C14.2366 10.9827 15.0987 9.68497 15.7377 8.27493L17.7759 10.3132C17.2922 11.6125 16.454 12.9891 15.3166 14.2504ZM18.2084 8.61341L16.294 6.6991C16.4576 6.0902 16.5471 5.46377 16.5606 4.83343L17.4628 5.73561C18.1291 6.40192 18.3556 7.42805 18.2084 8.61341ZM5.20261 5.20256C8.38092 2.02425 12.532 0.804902 14.2645 2.53731C15.9969 4.26973 14.7775 8.42085 11.5992 11.5992C8.4209 14.7775 4.26978 15.9968 2.53737 14.2644C0.804954 12.532 2.02431 8.38087 5.20261 5.20256ZM5.73566 17.4627L4.83548 16.5625C5.46583 16.5491 6.09225 16.4596 6.70115 16.296L8.61546 18.2103C7.4281 18.3556 6.40197 18.129 5.73566 17.4627ZM10.3132 17.7759L8.27565 15.7383C9.68568 15.0994 10.9834 14.2372 12.1189 13.185L14.2511 15.3172C12.9891 16.4539 11.6125 17.2921 10.3132 17.7759Z" fill="#11273D"/>
</g>
<defs>
<clipPath id="clip0_1_10620">
<rect width="20" height="20" fill="white"/>
</clipPath>
</defs>
</svg>
