<svg width="25" height="24" viewBox="0 0 25 24" fill="none" xmlns="http://www.w3.org/2000/svg">
<g clip-path="url(#clip0_1_9823)">
<path d="M17.2179 12.8342C18.3702 11.9275 19.2112 10.6844 19.624 9.27759C20.0369 7.87069 20.001 6.37019 19.5213 4.98469C19.0417 3.59929 18.1421 2.39779 16.9477 1.54739C15.7533 0.69699 14.3236 0.23999 12.8575 0.23999C11.3913 0.23999 9.9616 0.69699 8.7673 1.54739C7.5729 2.39779 6.6733 3.59929 6.1937 4.98469C5.714 6.37019 5.678 7.87069 6.0909 9.27759C6.5037 10.6844 7.3447 11.9275 8.497 12.8342C6.5226 13.6252 4.7998 14.9372 3.5124 16.6303C2.2249 18.3235 1.4211 20.3342 1.1865 22.4483C1.1696 22.6026 1.1831 22.7588 1.2265 22.9078C1.2699 23.057 1.3422 23.196 1.4394 23.3172C1.6355 23.5619 1.9209 23.7186 2.2326 23.7529C2.5443 23.7872 2.8569 23.6962 3.1015 23.5001C3.3462 23.3039 3.5029 23.0186 3.5372 22.7069C3.7953 20.4093 4.8908 18.2874 6.6144 16.7466C8.3381 15.2057 10.569 14.3539 12.881 14.3539C15.193 14.3539 17.4238 15.2057 19.1476 16.7466C20.8712 18.2874 21.9667 20.4093 22.2248 22.7069C22.2567 22.9956 22.3945 23.2623 22.6116 23.4555C22.8287 23.6487 23.1096 23.7547 23.4001 23.7529H23.5294C23.8374 23.7174 24.119 23.5617 24.3129 23.3194C24.5065 23.0773 24.5967 22.7683 24.5637 22.4601C24.328 20.34 23.5199 18.3241 22.2257 16.6283C20.9317 14.9326 19.2006 13.6211 17.2179 12.8342ZM12.8575 11.9997C11.9277 11.9997 11.0187 11.724 10.2456 11.2074C9.4724 10.6907 8.8699 9.95649 8.514 9.09749C8.1582 8.23849 8.0651 7.29319 8.2465 6.38119C8.4279 5.46929 8.8757 4.63159 9.5332 3.97409C10.1906 3.31659 11.0283 2.86879 11.9402 2.68739C12.8523 2.50599 13.7975 2.59909 14.6565 2.95499C15.5156 3.31079 16.2498 3.91339 16.7665 4.68649C17.283 5.45959 17.5587 6.36859 17.5587 7.29839C17.5587 8.54529 17.0635 9.74109 16.1817 10.6227C15.3001 11.5044 14.1044 11.9997 12.8575 11.9997Z" fill="#8796A4"/>
</g>
<defs>
<clipPath id="clip0_1_9823">
<rect width="24" height="24" fill="white" transform="translate(0.875)"/>
</clipPath>
</defs>
</svg>
