<svg width="25" height="24" viewBox="0 0 25 24" fill="none" xmlns="http://www.w3.org/2000/svg">
<path d="M22.7792 10.0732L12.857 1.25351C12.6553 1.07407 12.3948 0.974976 12.125 0.974976C11.8551 0.974976 11.5945 1.07407 11.3929 1.25351L1.47076 10.0732C1.25204 10.2674 1.11938 10.5404 1.10204 10.8323C1.0847 11.1243 1.18398 11.4111 1.37813 11.6298C1.57229 11.8486 1.84538 11.9812 2.13732 11.9986C2.42926 12.0159 2.71613 11.9166 2.93476 11.7225L3.30526 11.3928V21.9225C3.30526 22.2149 3.42142 22.4954 3.62813 22.7021C3.83485 22.9087 4.11526 23.025 4.40767 23.025H19.8422C20.1346 23.025 20.415 22.9087 20.6217 22.7021C20.8285 22.4954 20.9447 22.2149 20.9447 21.9225V11.3928L21.3151 11.7225C21.5338 11.9166 21.8207 12.016 22.1126 11.9986C22.2571 11.9899 22.3986 11.953 22.5289 11.8897C22.6591 11.8264 22.7756 11.7381 22.8717 11.6298C22.9679 11.5217 23.0418 11.3954 23.0891 11.2586C23.1366 11.1217 23.1565 10.9769 23.1479 10.8323C23.1393 10.6878 23.1023 10.5464 23.039 10.4161C22.9757 10.2858 22.8874 10.1693 22.7792 10.0732ZM9.02045 20.8201C9.24498 20.1755 9.66442 19.6171 10.2207 19.2217C10.777 18.8265 11.4425 18.614 12.125 18.614C12.8075 18.614 13.4729 18.8265 14.0292 19.2217C14.5855 19.6171 15.0051 20.1755 15.2295 20.8201H9.02045ZM10.4712 14.7565C10.4712 14.4294 10.5683 14.1096 10.7499 13.8377C10.9316 13.5658 11.1899 13.3538 11.4921 13.2287C11.7943 13.1034 12.1268 13.0707 12.4477 13.1345C12.7683 13.1984 13.063 13.3559 13.2943 13.5871C13.5256 13.8183 13.683 14.1131 13.7469 14.4339C13.8107 14.7546 13.778 15.0871 13.6527 15.3893C13.5276 15.6915 13.3156 15.9498 13.0437 16.1314C12.7718 16.3131 12.4521 16.4102 12.125 16.4102C11.6866 16.4096 11.2662 16.2352 10.9562 15.9252C10.6464 15.6152 10.4718 15.1949 10.4712 14.7565ZM18.7397 20.8201H17.5259C17.3735 20.0891 17.0741 19.3968 16.6461 18.785C16.2179 18.1732 15.67 17.6549 15.0354 17.2613C15.6431 16.5679 15.9799 15.6784 15.9835 14.7565C15.9835 13.733 15.577 12.7517 14.8534 12.028C14.1297 11.3043 13.1484 10.8979 12.125 10.8979C11.1016 10.8979 10.1201 11.3043 9.39648 12.028C8.67282 12.7517 8.26632 13.733 8.26632 14.7565C8.27007 15.6784 8.60673 16.5679 9.21442 17.2613C8.57973 17.6548 8.03157 18.1731 7.60332 18.7848C7.17498 19.3967 6.87545 20.089 6.72292 20.8201H5.51017V9.43263L12.125 3.55319L18.7397 9.43263V20.8201Z" fill="#FFE45B"/>
</svg>
